<?xml version="1.0" encoding="UTF-8" standalone="no"?>
<svg
   xmlns:dc="http://purl.org/dc/elements/1.1/"
   xmlns:cc="http://creativecommons.org/ns#"
   xmlns:rdf="http://www.w3.org/1999/02/22-rdf-syntax-ns#"
   xmlns:svg="http://www.w3.org/2000/svg"
   xmlns="http://www.w3.org/2000/svg"
   xmlns:sodipodi="http://sodipodi.sourceforge.net/DTD/sodipodi-0.dtd"
   xmlns:inkscape="http://www.inkscape.org/namespaces/inkscape"
   version="1.1"
   x="0px"
   y="0px"
   viewBox="-1.417 -2 70.833 100"
   enable-background="new -1.417 -2 70.833 100"
   xml:space="preserve"
   id="svg40"
   sodipodi:docname="finger.svg"
   width="70.833"
   height="100"
   inkscape:version="0.92.4 (unknown)"><metadata
     id="metadata46"><rdf:RDF><cc:Work
         rdf:about=""><dc:format>image/svg+xml</dc:format><dc:type
           rdf:resource="http://purl.org/dc/dcmitype/StillImage" /><dc:title></dc:title></cc:Work></rdf:RDF></metadata><defs
     id="defs44" /><sodipodi:namedview
     pagecolor="#ffffff"
     bordercolor="#666666"
     borderopacity="1"
     objecttolerance="10"
     gridtolerance="10"
     guidetolerance="10"
     inkscape:pageopacity="0"
     inkscape:pageshadow="2"
     inkscape:window-width="1015"
     inkscape:window-height="480"
     id="namedview42"
     showgrid="false"
     inkscape:zoom="1.888"
     inkscape:cx="35.4165"
     inkscape:cy="62.5"
     inkscape:window-x="75"
     inkscape:window-y="34"
     inkscape:window-maximized="0"
     inkscape:current-layer="svg40" /><g
     id="g870"
     transform="translate(-4.9978924e-4,25)"
     style="fill:#ffffff"><rect
       id="rect2"
       height="4.1669998"
       width="8.3330002"
       y="-27"
       x="31.917"
       style="fill:#ffffff" /><polygon
       transform="translate(0,-25)"
       id="polygon4"
       points="19.417,56.333 19.417,52.143 19.417,48 19.417,35.5 15.25,35.5 15.25,48 11.083,48 11.083,52.167 15.25,52.167 15.25,56.333 "
       style="fill:#ffffff" /><rect
       id="rect6"
       height="4.1669998"
       width="8.3330002"
       y="18.833"
       x="2.75"
       style="fill:#ffffff" /><rect
       id="rect8"
       height="8.3330002"
       width="4.1669998"
       y="23"
       x="-1.4170001"
       style="fill:#ffffff" /><rect
       id="rect10"
       height="4.1669998"
       width="4.1669998"
       y="31.333"
       x="2.75"
       style="fill:#ffffff" /><rect
       id="rect12"
       height="8.3330002"
       width="4.1669998"
       y="35.5"
       x="6.9169998"
       style="fill:#ffffff" /><rect
       id="rect14"
       height="8.3339996"
       width="4.1669998"
       y="43.833"
       x="11.083"
       style="fill:#ffffff" /><rect
       id="rect16"
       height="8.3330002"
       width="4.1669998"
       y="52.167"
       x="15.25"
       style="fill:#ffffff" /><rect
       id="rect18"
       height="8.3330002"
       width="4.1669998"
       y="60.5"
       x="19.417"
       style="fill:#ffffff" /><rect
       id="rect20"
       height="4.1669998"
       width="33.333"
       y="68.833"
       x="23.583"
       style="fill:#ffffff" /><rect
       id="rect22"
       height="8.3330002"
       width="4.1659999"
       y="60.5"
       x="56.917"
       style="fill:#ffffff" /><rect
       id="rect24"
       height="12.5"
       width="4.1669998"
       y="48"
       x="61.083"
       style="fill:#ffffff" /><rect
       id="rect26"
       height="29.167"
       width="4.1669998"
       y="18.833"
       x="65.25"
       style="fill:#ffffff" /><rect
       id="rect28"
       height="4.1669998"
       width="4.1669998"
       y="14.667"
       x="61.083"
       style="fill:#ffffff" /><polygon
       transform="translate(0,-25)"
       id="polygon30"
       points="52.75,39.713 52.75,52.167 56.917,52.167 56.917,39.667 61.083,39.667 61.083,35.5 56.784,35.5 52.75,35.5 "
       style="fill:#ffffff" /><polygon
       transform="translate(0,-25)"
       id="polygon32"
       points="44.417,47.998 44.417,35.5 52.75,35.5 52.75,31.333 44.417,31.333 44.417,2.167 40.25,2.167 40.25,31.428 40.25,35.57 40.25,47.998 40.25,48 44.417,48 "
       style="fill:#ffffff" /><polygon
       transform="translate(0,-25)"
       id="polygon34"
       points="27.75,31.333 19.417,31.333 19.417,35.5 27.75,35.5 27.75,43.833 31.917,43.833 31.917,2.167 27.75,2.167 "
       style="fill:#ffffff" /></g></svg>